<svg version="1.1" id="Layer_1" xmlns="http://www.w3.org/2000/svg" x="0" y="0" viewBox="0 0 482.2 482.2" xml:space="preserve"><style>.st0{fill:#324a5e}.st2{fill:#e6e9ee}</style><circle class="st0" cx="241.1" cy="241.1" r="241.1"/><path d="M155 73.4v54h-54.1v281.4h255.4V73.4H155z" fill="#fff"/><path class="st2" d="M155 73.4l-54.1 54H155v-54zm-22.3 209.9h191.2V298H132.7v-14.7zm0 30.9h191.2v14.7H132.7v-14.7zm0 31H246v14.7H132.7v-14.7z"/><path d="M323.8 251.5l-17 17-34.8-34.8 17-17 34.8 34.8z" fill="#2b3b4e"/><circle class="st0" cx="240.2" cy="184.9" r="76.5"/><circle cx="240.2" cy="184.9" r="59.1" fill="#84dbff"/><path class="st2" d="M322.9 241.6l-26 26c-.9.9-.9 2.5 0 3.4l70.2 70.2c.9.9 2.5.9 3.4 0l26-26c.9-.9.9-2.5 0-3.4l-70.2-70.2c-.9-.9-2.4-.9-3.4 0z"/><path d="M356.2 330.4L307.8 282l29.4-29.4 48.4 48.4-29.4 29.4z" fill="#ff7058"/></svg>